<?xml version="1.0" encoding="utf-8"?>
<!-- Generator: Adobe Illustrator 16.0.0, SVG Export Plug-In . SVG Version: 6.00 Build 0)  -->
<!DOCTYPE svg PUBLIC "-//W3C//DTD SVG 1.1//EN" "http://www.w3.org/Graphics/SVG/1.1/DTD/svg11.dtd">
<svg version="1.1" id="Layer_1" xmlns="http://www.w3.org/2000/svg" xmlns:xlink="http://www.w3.org/1999/xlink" x="0px" y="0px"
	 width="32px" height="32px" viewBox="0 0 32 32" enable-background="new 0 0 32 32" xml:space="preserve">
<circle opacity="0.4" fill="#FF0000" cx="16" cy="16" r="16"/>
<g>
	<path fill="#FFFFFF" d="M14.287,15.412c0,0,1.561-0.497,1.471-2.488c-0.091-1.989-1.471-2.418-2.533-2.6h-6.33v11.169h5.742
		c0,0,3.641,0.137,3.641-3.323C16.277,18.171,16.465,16.076,14.287,15.412z M9.357,12.246h2.805c1.109,0,1.176,1.255,1.176,1.255
		c0,1.301-1.401,1.255-1.401,1.255H9.357V12.246z M12.434,19.572H9.357V16.52h3.054c0,0,1.425,0.204,1.425,1.526
		C13.836,19.369,12.434,19.572,12.434,19.572z"/>
	<path fill="#FFFFFF" d="M21.025,13.128c0,0-3.866,0.091-4.069,4.251c0,0,0,0.813,0.203,1.56c0.203,0.746,1.288,2.736,4.048,2.736
		c2.758,0,3.504-2.058,3.775-2.713h-2.012c0,0-0.52,1.085-1.809,1.085s-1.922-1.108-1.945-2.001h5.88
		C25.097,18.046,25.48,13.128,21.025,13.128z M19.217,16.52c0,0,0.25-1.65,1.832-1.65c0,0,1.582-0.136,1.786,1.65H19.217z"/>
	<rect x="18.787" y="11.047" fill="#FFFFFF" width="4.522" height="1.199"/>
</g>
</svg>
