<?xml version="1.0" encoding="utf-8"?>
<!-- Generator: Adobe Illustrator 16.0.0, SVG Export Plug-In . SVG Version: 6.00 Build 0)  -->
<!DOCTYPE svg PUBLIC "-//W3C//DTD SVG 1.1//EN" "http://www.w3.org/Graphics/SVG/1.1/DTD/svg11.dtd">
<svg version="1.1" id="Layer_1" xmlns="http://www.w3.org/2000/svg" xmlns:xlink="http://www.w3.org/1999/xlink" x="0px" y="0px"
	 width="32px" height="32px" viewBox="0 0 32 32" enable-background="new 0 0 32 32" xml:space="preserve">
<circle opacity="0.4" fill="#FF0000" cx="15.999" cy="16" r="16"/>
<g>
	<path fill="none" d="M16.974,12.75c1.642-0.63,3.141-1.539,4.127-2.848C19.721,8.746,17.941,8.049,16,8.049
		c-0.622,0-1.229,0.071-1.809,0.207c0.508,0.678,1.335,1.866,2.253,3.511C16.614,12.071,16.792,12.399,16.974,12.75z"/>
	<path fill="none" d="M17.672,14.169c0.195,0.417,0.391,0.856,0.586,1.318c1.641-0.318,3.539-0.339,5.684,0.168
		c-0.073-1.742-0.708-3.339-1.729-4.615C21.061,12.474,19.428,13.473,17.672,14.169z"/>
	<path fill="none" d="M12.621,8.801c-2.166,1.018-3.798,2.986-4.36,5.367c1.135,0,4.207-0.084,7.19-0.918
		C14.182,10.849,13.02,9.304,12.621,8.801z"/>
	<path fill="none" d="M18.85,16.972c0.623,1.657,1.199,3.534,1.632,5.596c1.766-1.208,3.021-3.109,3.369-5.312
		C22.103,16.807,20.432,16.713,18.85,16.972z"/>
	<path fill="none" d="M13.182,17.722c0.926-0.675,2.105-1.357,3.534-1.832c-0.181-0.417-0.362-0.819-0.544-1.204
		c-3.181,0.948-6.435,1.06-7.789,1.06c-0.127,0-0.238-0.001-0.33-0.002C8.05,15.829,8.049,15.915,8.049,16
		c0,1.93,0.688,3.698,1.83,5.076C10.406,20.325,11.5,18.95,13.182,17.722z"/>
	<path fill="none" d="M14.111,18.996c-1.707,1.246-2.734,2.664-3.09,3.204c1.363,1.096,3.094,1.751,4.979,1.751
		c1.074,0,2.098-0.213,3.031-0.599c-0.434-2.219-1.047-4.231-1.725-6.007C16.19,17.706,15.124,18.256,14.111,18.996z"/>
	<path fill="#FFFFFF" d="M16,6.587c-5.199,0-9.414,4.214-9.414,9.413s4.215,9.413,9.414,9.413c5.197,0,9.412-4.214,9.412-9.413
		S21.197,6.587,16,6.587z M23.941,15.655c-2.145-0.507-4.043-0.486-5.684-0.168c-0.195-0.461-0.391-0.901-0.586-1.318
		c1.756-0.696,3.389-1.695,4.541-3.129C23.233,12.316,23.868,13.913,23.941,15.655z M16,8.049c1.941,0,3.721,0.696,5.101,1.853
		c-0.986,1.309-2.485,2.217-4.127,2.848c-0.182-0.35-0.359-0.678-0.529-0.982c-0.918-1.645-1.745-2.833-2.253-3.511
		C14.771,8.121,15.378,8.049,16,8.049z M12.621,8.801c0.398,0.503,1.561,2.048,2.83,4.449c-2.983,0.833-6.056,0.918-7.19,0.918
		C8.823,11.787,10.455,9.819,12.621,8.801z M8.049,16c0-0.085,0.001-0.171,0.004-0.256c0.092,0.001,0.203,0.002,0.33,0.002
		c1.354,0,4.608-0.112,7.789-1.06c0.182,0.385,0.363,0.787,0.544,1.204c-1.429,0.475-2.608,1.156-3.534,1.832
		c-1.682,1.228-2.775,2.603-3.303,3.354C8.736,19.698,8.049,17.93,8.049,16z M16,23.951c-1.885,0-3.615-0.656-4.979-1.751
		c0.355-0.54,1.383-1.958,3.09-3.204c1.013-0.74,2.079-1.29,3.195-1.65c0.678,1.775,1.291,3.788,1.725,6.007
		C18.098,23.737,17.074,23.951,16,23.951z M20.481,22.568c-0.433-2.062-1.009-3.939-1.632-5.596
		c1.582-0.259,3.253-0.165,5.001,0.285C23.502,19.459,22.247,21.36,20.481,22.568z"/>
</g>
</svg>
