<?xml version="1.0" encoding="utf-8"?>
<!-- Generator: Adobe Illustrator 16.0.0, SVG Export Plug-In . SVG Version: 6.00 Build 0)  -->
<!DOCTYPE svg PUBLIC "-//W3C//DTD SVG 1.1//EN" "http://www.w3.org/Graphics/SVG/1.1/DTD/svg11.dtd">
<svg version="1.1" id="Layer_1" xmlns="http://www.w3.org/2000/svg" xmlns:xlink="http://www.w3.org/1999/xlink" x="0px" y="0px"
	 width="32px" height="32px" viewBox="0 0 32 32" enable-background="new 0 0 32 32" xml:space="preserve">
<circle opacity="0.4" fill="#FF0000" cx="16" cy="16" r="16"/>
<path fill="#FFFFFF" d="M22.322,7.946H9.678c-0.957,0-1.731,0.775-1.731,1.732v12.644c0,0.957,0.774,1.732,1.731,1.732h12.645
	c0.956,0,1.732-0.775,1.732-1.732V9.678C24.055,8.721,23.278,7.946,22.322,7.946z M13.075,14.451
	c0.067-0.13,0.145-0.256,0.229-0.375c0.003-0.003,0.004-0.006,0.007-0.009c0.061-0.085,0.125-0.168,0.193-0.248
	c0.004-0.005,0.01-0.011,0.014-0.016c0.066-0.076,0.135-0.148,0.208-0.218c0.007-0.006,0.015-0.014,0.022-0.021
	c0.021-0.021,0.045-0.042,0.068-0.062c0.008-0.008,0.018-0.016,0.025-0.022c0.041-0.036,0.082-0.069,0.123-0.102
	c0.012-0.009,0.023-0.018,0.035-0.027c0.021-0.017,0.043-0.033,0.065-0.049c0.015-0.011,0.03-0.021,0.045-0.032
	c0.027-0.02,0.055-0.038,0.082-0.057c0.026-0.017,0.052-0.034,0.079-0.05c0.02-0.013,0.039-0.024,0.059-0.036
	c0.021-0.012,0.041-0.024,0.062-0.035c0.019-0.011,0.037-0.021,0.058-0.032c0.036-0.019,0.072-0.038,0.108-0.056
	c0.017-0.007,0.032-0.015,0.049-0.022c0.027-0.013,0.055-0.025,0.082-0.037c0.018-0.007,0.033-0.015,0.051-0.022
	c0.035-0.014,0.068-0.027,0.102-0.04c0.015-0.005,0.028-0.011,0.043-0.016c0.037-0.014,0.076-0.027,0.114-0.039
	c0.015-0.005,0.031-0.01,0.046-0.015c0.035-0.011,0.07-0.021,0.104-0.03c0.013-0.003,0.023-0.006,0.036-0.009
	c0.045-0.012,0.09-0.022,0.137-0.032c0.013-0.002,0.025-0.005,0.039-0.008c0.037-0.007,0.074-0.014,0.111-0.02
	c0.014-0.002,0.025-0.004,0.039-0.006c0.048-0.007,0.096-0.014,0.145-0.019c0.009-0.001,0.018-0.001,0.026-0.002
	c0.042-0.004,0.083-0.007,0.124-0.009c0.015-0.001,0.028-0.001,0.043-0.002c0.049-0.002,0.1-0.003,0.15-0.003
	s0.101,0.001,0.151,0.003c0.014,0.001,0.027,0.001,0.04,0.002c0.043,0.002,0.084,0.005,0.125,0.009
	c0.009,0.001,0.018,0.001,0.027,0.002c0.049,0.005,0.096,0.011,0.145,0.019c0.013,0.002,0.025,0.004,0.039,0.006
	c0.037,0.006,0.074,0.013,0.111,0.02c0.013,0.002,0.025,0.005,0.039,0.008c0.046,0.01,0.092,0.02,0.138,0.032
	c0.011,0.003,0.022,0.006,0.034,0.009c0.035,0.009,0.07,0.019,0.104,0.03c0.016,0.005,0.032,0.009,0.047,0.015
	c0.039,0.012,0.077,0.025,0.115,0.039c0.014,0.005,0.028,0.01,0.042,0.016c0.034,0.013,0.067,0.026,0.101,0.04
	c0.018,0.008,0.036,0.015,0.053,0.022c0.027,0.012,0.055,0.024,0.082,0.037c0.016,0.007,0.032,0.015,0.047,0.022
	c0.037,0.018,0.074,0.037,0.111,0.056c0.019,0.011,0.037,0.021,0.057,0.032c0.021,0.011,0.042,0.023,0.062,0.035
	c0.02,0.012,0.039,0.023,0.06,0.036c0.026,0.016,0.052,0.033,0.077,0.05c0.027,0.019,0.057,0.037,0.082,0.057
	c0.016,0.01,0.031,0.021,0.047,0.032c0.021,0.016,0.043,0.032,0.064,0.049c0.012,0.009,0.022,0.018,0.034,0.027
	c0.042,0.033,0.083,0.066,0.123,0.102c0.009,0.007,0.018,0.015,0.026,0.022c0.023,0.02,0.046,0.041,0.068,0.062
	c0.008,0.007,0.014,0.015,0.021,0.021c0.072,0.07,0.143,0.143,0.209,0.218c0.005,0.005,0.009,0.01,0.014,0.016
	c0.068,0.079,0.133,0.162,0.193,0.248c0.002,0.003,0.005,0.006,0.006,0.009c0.085,0.119,0.161,0.245,0.229,0.375
	c0.237,0.455,0.372,0.972,0.372,1.52c0,1.82-1.476,3.296-3.296,3.296s-3.297-1.476-3.297-3.296
	C12.703,15.423,12.838,14.906,13.075,14.451z M22.191,21.159c0,0.57-0.463,1.032-1.033,1.032H10.841
	c-0.569,0-1.032-0.462-1.032-1.032v-6.707h1.41c-0.152,0.479-0.234,0.989-0.234,1.519c0,2.77,2.246,5.016,5.016,5.016
	c2.771,0,5.016-2.246,5.016-5.016c0-0.53-0.082-1.04-0.234-1.519h1.41V21.159z M22.22,11.864c0,0.448-0.363,0.811-0.811,0.811
	h-1.303c-0.447,0-0.811-0.363-0.811-0.811v-1.302c0-0.447,0.363-0.811,0.811-0.811h1.303c0.447,0,0.811,0.363,0.811,0.811V11.864z"
	/>
</svg>
