<?xml version="1.0" encoding="utf-8"?>
<!-- Generator: Adobe Illustrator 16.0.0, SVG Export Plug-In . SVG Version: 6.00 Build 0)  -->
<!DOCTYPE svg PUBLIC "-//W3C//DTD SVG 1.1//EN" "http://www.w3.org/Graphics/SVG/1.1/DTD/svg11.dtd">
<svg version="1.1" id="Layer_1" xmlns="http://www.w3.org/2000/svg" xmlns:xlink="http://www.w3.org/1999/xlink" x="0px" y="0px"
	 width="32px" height="32px" viewBox="0 0 32 32" enable-background="new 0 0 32 32" xml:space="preserve">
<circle opacity="0.4" fill="#FF0000" cx="16" cy="16" r="16"/>
<g>
	<path fill="#FFFFFF" d="M7.986,10.076l7.117,5.614c0,0,0.369,0.396,0.844,0.396s0.711-0.052,0.922-0.264l7.248-5.613
		c0,0,0-0.423-0.79-0.423H8.672C8.672,9.785,8.211,9.852,7.986,10.076z"/>
	<polygon fill="#FFFFFF" points="7.723,11.119 13.76,16.339 7.723,20.846 	"/>
	<polygon fill="#FFFFFF" points="18.188,16.444 24.275,11.304 24.275,20.846 	"/>
	<path fill="#FFFFFF" d="M14.154,16.655c0,0,1.002,1.081,1.898,1.081s1.818-1.081,1.818-1.081l5.877,4.56H8.092L14.154,16.655z"/>
</g>
</svg>
