<?xml version="1.0" encoding="utf-8"?>
<!-- Generator: Adobe Illustrator 16.0.0, SVG Export Plug-In . SVG Version: 6.00 Build 0)  -->
<!DOCTYPE svg PUBLIC "-//W3C//DTD SVG 1.1//EN" "http://www.w3.org/Graphics/SVG/1.1/DTD/svg11.dtd">
<svg version="1.1" id="Layer_1" xmlns="http://www.w3.org/2000/svg" xmlns:xlink="http://www.w3.org/1999/xlink" x="0px" y="0px"
	 width="32px" height="32px" viewBox="0 0 32 32" enable-background="new 0 0 32 32" xml:space="preserve">
<circle opacity="0.4" fill="#FF0000" cx="16" cy="16" r="16"/>
<path fill="#FFFFFF" d="M11.504,17.313l0.241-0.851c0,0,0.112-0.402-0.12-0.675c0,0-0.715-0.916-0.715-2.185
	c0-1.27,0.867-5.013,5.333-5.013c0,0,4.306-0.161,4.306,4.226c0,0,0.018,3.952-2.217,5.157c-2.232,1.205-3.164-1.028-2.731-2.153
	c0.435-1.125,0.917-2.812,0.853-3.47c-0.065-0.659-0.354-1.51-1.463-1.478c-1.108,0.032-2.137,1.285-2.056,2.764
	c0,0,0.08,0.996,0.37,1.59l-1.287,5.607c0,0-0.24,1.028-0.256,1.671c-0.017,0.643,0.111,2.41,0.111,2.41s0,0.305,0.113,0.321
	c0.111,0.016,0.369-0.241,0.562-0.546c0.193-0.306,1.188-1.494,1.67-3.502l0.595-2.33c0,0,0.997,1.317,2.619,1.285
	c1.622-0.032,3.72-0.755,4.828-3.229c1.108-2.475,0.892-4.041,0.892-4.041s-0.242-6.362-7.135-6.097
	c-6.921,0.266-7.18,6.458-7.18,6.458s-0.241,2.988,2.096,4.193C10.934,17.426,11.416,17.622,11.504,17.313z"/>
</svg>
