<?xml version="1.0" encoding="utf-8"?>
<!-- Generator: Adobe Illustrator 16.0.0, SVG Export Plug-In . SVG Version: 6.00 Build 0)  -->
<!DOCTYPE svg PUBLIC "-//W3C//DTD SVG 1.1//EN" "http://www.w3.org/Graphics/SVG/1.1/DTD/svg11.dtd">
<svg version="1.1" id="Layer_1" xmlns="http://www.w3.org/2000/svg" xmlns:xlink="http://www.w3.org/1999/xlink" x="0px" y="0px"
	 width="32px" height="32px" viewBox="0 0 32 32" enable-background="new 0 0 32 32" xml:space="preserve">
<circle opacity="0.4" fill="#FF0000" cx="16" cy="16" r="16"/>
<path fill="#FFFFFF" d="M7.873,9.024c0,0,2.898,3.842,7.937,4.108c0,0-0.683-2.27,1.409-4.005c2.092-1.738,4.68-0.267,5.176,0.389
	c0,0,1.473-0.23,2.5-0.921c0,0-0.336,1.327-1.578,2.125c0,0,1.454-0.193,2.127-0.583c0,0-0.709,1.134-1.932,2.003
	c0,0,0.514,4.795-3.607,8.757c-4.121,3.962-10.902,3.138-13.348,1.064c0,0,3.323,0.373,5.663-1.622c0,0-2.765-0.053-3.562-2.633
	c0,0,1.381,0.107,1.621-0.159c0,0-2.979-0.718-3.004-3.829c0,0,0.903,0.452,1.727,0.479C9.002,14.196,6.131,12.122,7.873,9.024z"/>
</svg>
